<mxfile host="app.diagrams.net" agent="Mozilla/5.0 (X11; Linux x86_64; rv:136.0) Gecko/20100101 Firefox/136.0" version="26.2.12">
  <diagram name="Seite-1" id="sw4guP9iCc1Kvd56eJ8C">
    <mxGraphModel dx="1428" dy="783" grid="1" gridSize="10" guides="1" tooltips="1" connect="1" arrows="1" fold="1" page="1" pageScale="1" pageWidth="1169" pageHeight="827" math="0" shadow="0">
      <root>
        <mxCell id="0" />
        <mxCell id="1" parent="0" />
        <mxCell id="wWao_oByf-jQ_hAG6Ybc-20" style="edgeStyle=orthogonalEdgeStyle;rounded=0;orthogonalLoop=1;jettySize=auto;html=1;entryX=0.5;entryY=0;entryDx=0;entryDy=0;endArrow=none;startFill=0;" edge="1" parent="1" source="wWao_oByf-jQ_hAG6Ybc-4" target="wWao_oByf-jQ_hAG6Ybc-10">
          <mxGeometry relative="1" as="geometry" />
        </mxCell>
        <mxCell id="wWao_oByf-jQ_hAG6Ybc-4" value="Business Logic" style="rounded=0;whiteSpace=wrap;html=1;" vertex="1" parent="1">
          <mxGeometry x="420" y="354" width="120" height="60" as="geometry" />
        </mxCell>
        <mxCell id="wWao_oByf-jQ_hAG6Ybc-14" style="edgeStyle=orthogonalEdgeStyle;rounded=0;orthogonalLoop=1;jettySize=auto;html=1;exitX=0.5;exitY=1;exitDx=0;exitDy=0;entryX=0.5;entryY=0;entryDx=0;entryDy=0;endArrow=none;startFill=0;curved=1;" edge="1" parent="1" source="wWao_oByf-jQ_hAG6Ybc-7" target="wWao_oByf-jQ_hAG6Ybc-9">
          <mxGeometry relative="1" as="geometry" />
        </mxCell>
        <mxCell id="wWao_oByf-jQ_hAG6Ybc-7" value="Mobile UI" style="rounded=0;whiteSpace=wrap;html=1;" vertex="1" parent="1">
          <mxGeometry x="310" y="130" width="120" height="60" as="geometry" />
        </mxCell>
        <mxCell id="wWao_oByf-jQ_hAG6Ybc-8" value="Web UI" style="rounded=0;whiteSpace=wrap;html=1;" vertex="1" parent="1">
          <mxGeometry x="525" y="130" width="120" height="60" as="geometry" />
        </mxCell>
        <mxCell id="wWao_oByf-jQ_hAG6Ybc-13" style="edgeStyle=orthogonalEdgeStyle;rounded=0;orthogonalLoop=1;jettySize=auto;html=1;exitX=0.5;exitY=0;exitDx=0;exitDy=0;curved=1;endArrow=none;startFill=0;" edge="1" parent="1" source="wWao_oByf-jQ_hAG6Ybc-9" target="wWao_oByf-jQ_hAG6Ybc-8">
          <mxGeometry relative="1" as="geometry" />
        </mxCell>
        <mxCell id="wWao_oByf-jQ_hAG6Ybc-15" style="edgeStyle=orthogonalEdgeStyle;rounded=0;orthogonalLoop=1;jettySize=auto;html=1;exitX=0.5;exitY=1;exitDx=0;exitDy=0;endArrow=none;startFill=0;entryX=0.5;entryY=0;entryDx=0;entryDy=0;" edge="1" parent="1" source="wWao_oByf-jQ_hAG6Ybc-9" target="wWao_oByf-jQ_hAG6Ybc-4">
          <mxGeometry relative="1" as="geometry" />
        </mxCell>
        <mxCell id="wWao_oByf-jQ_hAG6Ybc-9" value="API" style="rounded=0;whiteSpace=wrap;html=1;" vertex="1" parent="1">
          <mxGeometry x="420" y="250" width="120" height="60" as="geometry" />
        </mxCell>
        <mxCell id="wWao_oByf-jQ_hAG6Ybc-17" style="edgeStyle=orthogonalEdgeStyle;rounded=0;orthogonalLoop=1;jettySize=auto;html=1;exitX=0.5;exitY=1;exitDx=0;exitDy=0;endArrow=none;startFill=0;" edge="1" parent="1" source="wWao_oByf-jQ_hAG6Ybc-10" target="wWao_oByf-jQ_hAG6Ybc-11">
          <mxGeometry relative="1" as="geometry" />
        </mxCell>
        <mxCell id="wWao_oByf-jQ_hAG6Ybc-10" value="ORM" style="rounded=0;whiteSpace=wrap;html=1;" vertex="1" parent="1">
          <mxGeometry x="420" y="460" width="120" height="60" as="geometry" />
        </mxCell>
        <mxCell id="wWao_oByf-jQ_hAG6Ybc-11" value="DB" style="rounded=0;whiteSpace=wrap;html=1;" vertex="1" parent="1">
          <mxGeometry x="420" y="560" width="120" height="60" as="geometry" />
        </mxCell>
      </root>
    </mxGraphModel>
  </diagram>
</mxfile>
